<svg xmlns="http://www.w3.org/2000/svg" width="38" height="60" fill="none" viewBox="0 0 38 60"><path fill="#fff" d="M19.0001 59.9998C19.4629 59.9998 20.0774 59.7199 20.3756 59.4359L37.3759 43.4362C38.1482 42.6892 38.2377 41.479 37.4539 40.6081C36.7532 39.8295 35.3866 39.8101 34.6257 40.5301L21.0005 53.3735V2C21.0005 0.8954 20.1051 0 19.0005 0C17.8959 0 17.0004 0.8954 17.0004 2V53.3735L3.37517 40.5301C2.61437 39.8102 1.28137 39.8613 0.547073 40.6081C-0.228127 41.3966 -0.159128 42.7006 0.625072 43.4362L17.6253 59.4359C18.0864 59.906 18.5305 59.9919 19.0001 59.9998Z"/></svg>